<svg width="78" height="78" version="1.1" xmlns="http://www.w3.org/2000/svg" desc="Created with imagetracer.js version 1.2.6" ><path fill="rgb(0,0,0)" stroke="rgb(0,0,0)" stroke-width="1" opacity="0" d="M 0 0 L 13 0.5 L 11 3.5 L 20 12.5 L 20 14.5 L 17.5 18 L 13.5 19 L 4.5 10 L 2.5 10 L 0.5 13 L 0 0 Z " /><path fill="rgb(0,0,0)" stroke="rgb(0,0,0)" stroke-width="1" opacity="0" d="M 18.5 0 L 78 0 L 78 65.5 L 76 64.5 L 71.5 59 Q 55 48 42 33.5 L 35 25.5 L 33 12.5 L 26.5 4 L 18.5 1 L 18.5 0 Z " /><path fill="rgb(0,0,0)" stroke="rgb(0,0,0)" stroke-width="1" opacity="0" d="M 0.5 16 L 7.5 29 L 15.5 33 Q 22.3 31.7 25.5 34 L 41 48.5 L 63.5 76 L 67 77.5 L 0 78 L 0.5 16 Z " /><path fill="rgb(0,0,0)" stroke="rgb(0,0,0)" stroke-width="1" opacity="0" d="M 77.5 72 L 78 78 L 71 77.5 L 77 73.5 L 77.5 72 Z " /><path fill="rgb(202,208,213)" stroke="rgb(202,208,213)" stroke-width="1" opacity="0.6784313725490196" d="M 13.5 0 Q 26 0.5 31 8.5 L 34 15.5 Q 32.7 22.3 35 25.5 L 53.5 45 L 76 63.5 Q 79 65.5 78 71.5 L 73.5 77 L 72 76.5 L 76 73.5 L 77 67.5 L 75.5 65 L 74.5 66 L 70.5 62 Q 49.8 48.2 34 29.5 L 32 25.5 L 33 24.5 L 33 16.5 L 30 8.5 L 27.5 6 L 17.5 1 L 13.5 1 L 13.5 2 L 20 4.5 L 18 5 L 17.5 7 L 15 5.5 L 21 12.5 L 22 17.5 L 16.5 22 L 16.5 21 L 21 17.5 L 20.5 16 Q 18.6 19.7 13.5 20 L 9 16.5 L 4.5 11 L 2 12.5 L 4 13 L 6 16.5 L 4 16.5 L 5 18.5 L 3 18.5 Q 4.2 26.8 10.5 30 Q 14.9 33.1 23.5 32 L 30 37.5 L 25.5 34 Q 22.3 31.7 15.5 33 L 6 27.5 Q 1.1 22.4 0 13.5 L 2.5 10 L 4.5 10 L 13.5 19 L 15.5 19 L 19 16.5 L 20 12.5 L 11 2.5 L 13.5 0 Z M 35 26 L 34 28 L 37 30 L 35 26 Z M 43 35 L 42 37 L 53 46 L 43 35 Z M 58 50 L 60 53 L 61 53 L 58 50 Z M 63 54 L 64 56 L 65 56 L 63 54 Z M 68 58 L 69 60 L 70 60 L 68 58 Z " /><path fill="rgb(202,208,213)" stroke="rgb(202,208,213)" stroke-width="1" opacity="0.6784313725490196" d="M 25.5 7 L 29.5 12 L 25.5 7 Z " /><path fill="rgb(202,208,213)" stroke="rgb(202,208,213)" stroke-width="1" opacity="0.6784313725490196" d="M 34.5 41 L 40.5 48 L 34.5 41 Z " /><path fill="rgb(202,208,213)" stroke="rgb(202,208,213)" stroke-width="1" opacity="0.6784313725490196" d="M 41.5 49 L 48.5 57 L 41.5 49 Z " /><path fill="rgb(202,208,213)" stroke="rgb(202,208,213)" stroke-width="1" opacity="0.6784313725490196" d="M 49.5 58 L 51.5 61 L 49.5 58 Z " /><path fill="rgb(202,208,213)" stroke="rgb(202,208,213)" stroke-width="1" opacity="0.6784313725490196" d="M 52.5 62 L 54.5 65 L 52.5 62 Z " /><path fill="rgb(202,208,213)" stroke="rgb(202,208,213)" stroke-width="1" opacity="0.6784313725490196" d="M 55.5 66 L 64 75.5 L 57 69.5 L 55.5 66 Z " /><path fill="rgb(202,208,213)" stroke="rgb(202,208,213)" stroke-width="1" opacity="0.6784313725490196" d="M 69.5 66 L 73 68.5 L 72 71 L 66.5 72 L 65 69.5 L 69.5 66 Z " /><path fill="rgb(202,208,213)" stroke="rgb(202,208,213)" stroke-width="1" opacity="0.6784313725490196" d="M 67.5 77 L 71 77.5 L 67.5 78 L 67.5 77 Z " /><path fill="rgb(149,154,160)" stroke="rgb(149,154,160)" stroke-width="1" opacity="0.984313725490196" d="M 20.5 4 L 21.5 6 L 23 5.5 L 23.5 7 L 25 6.5 L 25.5 8 Q 27.8 3.7 30 8.5 L 29.5 12 L 32 12.5 L 31 14.5 Q 35 16.5 33 24.5 L 57.5 50 L 76 65.5 L 77 69 Q 74.3 70.1 75 67.5 Q 49.8 50.2 28 29.5 L 32 22.5 L 32 18.5 L 31 18.5 Q 30.1 25.6 24.5 28 L 21.5 30 L 13.5 30 L 12.5 31 L 12.5 29 L 10.5 30 L 8.5 27 L 6 25.5 L 3 18.5 L 5 15.5 L 4.5 14 L 11.5 21 L 17.5 22 L 16.5 19 Q 18.3 22.8 20 19.5 L 18 18.5 L 21 16.5 L 21.5 18 L 22 15.5 L 15 5.5 L 18 6.5 Q 17.3 4.3 19.5 5 L 20.5 4 Z M 33 25 L 32 27 L 34 28 L 33 25 Z M 35 28 L 34 30 L 42 37 L 35 28 Z M 52 46 L 55 50 L 56 50 L 52 46 Z M 60 53 L 61 55 L 62 55 L 60 53 Z M 64 56 L 65 58 L 66 58 L 64 56 Z M 69 60 L 70 62 L 71 62 L 69 60 Z " /><path fill="rgb(149,154,160)" stroke="rgb(149,154,160)" stroke-width="1" opacity="0.984313725490196" d="M 3.5 11 L 9 15.5 L 4.5 12 L 2.5 13 L 3.5 11 Z " /><path fill="rgb(149,154,160)" stroke="rgb(149,154,160)" stroke-width="1" opacity="0.984313725490196" d="M 30.5 37 L 33.5 41 L 30.5 37 Z " /><path fill="rgb(149,154,160)" stroke="rgb(149,154,160)" stroke-width="1" opacity="0.984313725490196" d="M 41.5 48 L 43.5 51 L 41.5 48 Z " /><path fill="rgb(149,154,160)" stroke="rgb(149,154,160)" stroke-width="1" opacity="0.984313725490196" d="M 67.5 66 L 69 66.5 L 65.5 69 L 67.5 66 Z " /><path fill="rgb(149,154,160)" stroke="rgb(149,154,160)" stroke-width="1" opacity="0.984313725490196" d="M 70.5 71 L 72.5 72 L 74 71.5 Q 72.3 74.8 67.5 75 Q 64.5 73.5 67.5 72 L 70.5 71 Z " /><path fill="rgb(117,113,115)" stroke="rgb(117,113,115)" stroke-width="1" opacity="0.9803921568627451" d="M 27.5 25 L 25.5 28 L 27.5 25 Z " /><path fill="rgb(117,113,115)" stroke="rgb(117,113,115)" stroke-width="1" opacity="0.9803921568627451" d="M 29.5 26 L 28 28.5 L 33.5 35 L 71 64.5 L 62.5 66 L 61.5 63 L 57 60.5 L 57.5 59 Q 54.2 60.1 55 57.5 L 49 52.5 Q 49.8 50.3 47.5 51 L 44 46 L 27 33 L 26 29.5 L 29.5 26 Z " /><path fill="rgb(117,113,115)" stroke="rgb(117,113,115)" stroke-width="1" opacity="0.9803921568627451" d="M 8.5 27 L 9.5 29 L 8.5 27 Z " /><path fill="rgb(117,113,115)" stroke="rgb(117,113,115)" stroke-width="1" opacity="0.9803921568627451" d="M 23.5 28 L 22.5 30 L 23.5 28 Z " /><path fill="rgb(117,113,115)" stroke="rgb(117,113,115)" stroke-width="1" opacity="0.9803921568627451" d="M 11.5 29 L 20.5 30 L 23 31.5 L 20.5 32 L 18.5 32 L 11.5 30 L 11.5 29 Z " /><path fill="rgb(117,113,115)" stroke="rgb(117,113,115)" stroke-width="1" opacity="0.9803921568627451" d="M 27.5 34 L 29.5 37 L 27.5 34 Z " /><path fill="rgb(117,113,115)" stroke="rgb(117,113,115)" stroke-width="1" opacity="0.9803921568627451" d="M 44.5 51 L 45.5 53 L 44.5 51 Z " /><path fill="rgb(117,113,115)" stroke="rgb(117,113,115)" stroke-width="1" opacity="0.9803921568627451" d="M 72.5 65 L 74.5 68 Q 72.8 64.9 71 66.5 L 72.5 65 Z " /><path fill="rgb(117,113,115)" stroke="rgb(117,113,115)" stroke-width="1" opacity="0.9803921568627451" d="M 58.5 69 L 60.5 72 L 58.5 69 Z " /><path fill="rgb(117,113,115)" stroke="rgb(117,113,115)" stroke-width="1" opacity="0.9803921568627451" d="M 64.5 69 L 65 72 L 67 72.5 L 66.5 75 Q 62.7 73.7 64.5 69 Z " /><path fill="rgb(117,113,115)" stroke="rgb(117,113,115)" stroke-width="1" opacity="0.9803921568627451" d="M 75.5 69 Q 78.1 68.2 77 71.5 L 76 71.5 L 75.5 70 L 73 71.5 Q 75.3 72.8 72.5 74 L 72 71.5 L 73.5 70 L 75.5 69 Z " /><path fill="rgb(117,113,115)" stroke="rgb(117,113,115)" stroke-width="1" opacity="0.9803921568627451" d="M 75.5 73 L 74.5 75 L 75.5 73 Z " /><path fill="rgb(91,82,85)" stroke="rgb(91,82,85)" stroke-width="1" opacity="0.9921568627450981" d="M 20.5 3 L 25 5.5 L 23.5 5 Q 19.8 4.8 20.5 3 Z " /><path fill="rgb(91,82,85)" stroke="rgb(91,82,85)" stroke-width="1" opacity="0.9921568627450981" d="M 26.5 6 L 29.5 10 L 26.5 6 Z " /><path fill="rgb(91,82,85)" stroke="rgb(91,82,85)" stroke-width="1" opacity="0.9921568627450981" d="M 4.5 12 L 12.5 20 L 16 20.5 L 11.5 21 L 7 15 L 4 13.5 L 4.5 12 Z " /><path fill="rgb(91,82,85)" stroke="rgb(91,82,85)" stroke-width="1" opacity="0.9921568627450981" d="M 31.5 20 L 32 22.5 L 26 30.5 L 27 33 L 44 46 L 47.5 51 Q 49.8 50.3 49 52.5 L 55 57.5 Q 54.2 60.1 57.5 59 L 57.5 61 L 63 64.5 L 62.5 66 L 71.5 65 Q 75.5 66.9 76 72.5 Q 73.9 76.9 67.5 77 L 63 75 L 63 73 Q 60.3 74.1 61 71.5 Q 46.3 50.7 27.5 34 L 21 30.5 L 28 25.5 L 31.5 20 Z M 68 66 L 64 70 Q 63 74 67 75 L 73 74 L 75 71 L 74 70 L 71 72 L 73 68 Q 72 65 68 66 Z " /></svg>